<svg id="Layer_1" data-name="Layer 1" xmlns="http://www.w3.org/2000/svg" viewBox="0 0 593.82 330.38">
  <defs>
    <style>
      .cls-1 {
        fill: #b79f56;
      }
    </style>
  </defs>
  <title>Barrick_logo_icon</title>
  <path class="cls-1" d="M788.4,14.1a2.09,2.09,0,0,0,.5,2.2c1.8,1.8,1.2,6.2-1.1,8.4-1.3,1.1-18.7,9.8-38.8,19.3s-60.6,28.8-90,42.8-55.3,26.1-57.5,26.9a38.54,38.54,0,0,1-10.6,1.5c-6.4.1-7.2-.2-44.4-17.6-20.8-9.7-38.9-18.6-40.2-19.8-2.6-2.4-2.9-4.9-1.1-7.8,3.8-6-7.9-.9-12.4,5.5C489,80.9,462,138.3,462,141a9.24,9.24,0,0,0,.9,3.8c0.5,0.9,9.1,5.5,19,10.2l18.1,8.5-11.5,5.7c-12.7,6.3-19.3,7.7-26.5,5.8-8.1-2.2-75.1-34.2-76.7-36.7-1.3-1.9-1.3-2.8-.3-5.3,4-9.6-9.7-.4-15,9.9-8.5,16.8-28,61.4-28,63.9a6.13,6.13,0,0,0,1.3,4c0.6,0.5,12.9,6.5,27.2,13.2s26.2,12.6,26.5,13c1.2,1.9,62.9,30.2,67.6,31.1,7.7,1.4,12.8-.2,29.6-9.3,8.2-4.4,15.1-7.9,15.3-7.7s-2.3,6.5-5.5,13.9c-6.2,14.2-6.8,16.6-4.7,19.3,0.6,0.9,28.4,14.6,61.7,30.4l60.5,28.8H640l105.6-52.8c58-29,106.1-53.3,106.7-53.9s19.7-10.3,42.2-21.7l41-20.6,0.3-3.6c0.3-3.1-2.2-8.3-17.2-35.5-14-25.4-18.5-32.8-22.2-36.2-6.3-5.7-12.8-7.2-9.6-2.2,1.8,2.9,1.5,5.4-1,7.7-1.3,1.2-51.8,26.7-112.3,56.7S663.3,236.5,663,237s-6.4,3.7-13.5,7.1c-11.7,5.7-13.5,6.3-19.5,6.3s-7.7-.5-20.5-6.3c-7.7-3.5-14.2-6.7-14.5-7.2s-12.7-6.4-27.5-13.4-27.6-13.3-28.2-14.2c-3.5-4.5-.9-7.6,11.8-14.7l6.6-3.6,13.9,6.7,13.9,6.7,9.2,0.1H604l114.1-57c62.7-31.4,114.5-57.8,115-58.7a9.16,9.16,0,0,0,.9-3.7c0-2.1-25.7-52.5-31.3-61.5a29.33,29.33,0,0,0-7.6-7.7C790.1,12.7,789.4,12.5,788.4,14.1Z" transform="translate(-342 -13.12)"/>
</svg>
