<svg id="Layer_1" data-name="Layer 1" xmlns="http://www.w3.org/2000/svg" viewBox="0 0 1246 605.46">
  <defs>
    <style>
      .cls-1 {
        fill: #b79f56;
      }

      .cls-2 {
        fill: #004d77;
      }
    </style>
  </defs>
  <title>logo-pure</title>
  <g>
    <path class="cls-1" d="M788.4,14.1a2.09,2.09,0,0,0,.5,2.2c1.8,1.8,1.2,6.2-1.1,8.4-1.3,1.1-18.7,9.8-38.8,19.3s-60.6,28.8-90,42.8-55.3,26.1-57.5,26.9a38.54,38.54,0,0,1-10.6,1.5c-6.4.1-7.2-.2-44.4-17.6-20.8-9.7-38.9-18.6-40.2-19.8-2.6-2.4-2.9-4.9-1.1-7.8,3.8-6-7.9-.9-12.4,5.5C489,80.9,462,138.3,462,141a9.24,9.24,0,0,0,.9,3.8c0.5,0.9,9.1,5.5,19,10.2l18.1,8.5-11.5,5.7c-12.7,6.3-19.3,7.7-26.5,5.8-8.1-2.2-75.1-34.2-76.7-36.7-1.3-1.9-1.3-2.8-.3-5.3,4-9.6-9.7-.4-15,9.9-8.5,16.8-28,61.4-28,63.9a6.13,6.13,0,0,0,1.3,4c0.6,0.5,12.9,6.5,27.2,13.2s26.2,12.6,26.5,13c1.2,1.9,62.9,30.2,67.6,31.1,7.7,1.4,12.8-.2,29.6-9.3,8.2-4.4,15.1-7.9,15.3-7.7s-2.3,6.5-5.5,13.9c-6.2,14.2-6.8,16.6-4.7,19.3,0.6,0.9,28.4,14.6,61.7,30.4l60.5,28.8H640l105.6-52.8c58-29,106.1-53.3,106.7-53.9s19.7-10.3,42.2-21.7l41-20.6,0.3-3.6c0.3-3.1-2.2-8.3-17.2-35.5-14-25.4-18.5-32.8-22.2-36.2-6.3-5.7-12.8-7.2-9.6-2.2,1.8,2.9,1.5,5.4-1,7.7-1.3,1.2-51.8,26.7-112.3,56.7S663.3,236.5,663,237s-6.4,3.7-13.5,7.1c-11.7,5.7-13.5,6.3-19.5,6.3s-7.7-.5-20.5-6.3c-7.7-3.5-14.2-6.7-14.5-7.2s-12.7-6.4-27.5-13.4-27.6-13.3-28.2-14.2c-3.5-4.5-.9-7.6,11.8-14.7l6.6-3.6,13.9,6.7,13.9,6.7,9.2,0.1H604l114.1-57c62.7-31.4,114.5-57.8,115-58.7a9.16,9.16,0,0,0,.9-3.7c0-2.1-25.7-52.5-31.3-61.5a29.33,29.33,0,0,0-7.6-7.7C790.1,12.7,789.4,12.5,788.4,14.1Z" transform="translate(-17 -13.12)"/>
    <path class="cls-2" d="M278.8,438.4c-7.6,1.7-14.2,3.6-14.7,4.1s-12.2,32-26.1,70-26.6,71.8-28.2,75.2c-4.8,9.8-12,15.6-23.5,18.9-0.8.2-1.3,2-1.3,4.4v4h55v-4c0-3.7-.2-4-4-5-4.8-1.3-7-4.2-7-9.5,0-2.2,2.9-13.3,6.7-25.3l6.8-21.2,25.9,0.2,26,0.3,6.8,20.5c9,27.1,8.9,32.4-.2,35.1-3.8,1.1-4,1.4-4,5.1V615h75v-4c0-3.2-.4-4-1.9-4-3.4,0-10.5-3.1-13.5-5.8-1.6-1.5-4.5-6.1-6.5-10.3s-15.3-41-29.6-81.8-26.4-74-27-74S286.3,436.6,278.8,438.4Zm0.7,67.9c5.4,16.4,9.6,30,9.3,30.3s-9.7.3-21,.2l-20.5-.3,10.5-30.8c5.8-16.9,10.8-30.4,11.3-30S274.2,489.9,279.5,506.3Z" transform="translate(-17 -13.12)"/>
    <path class="cls-2" d="M983.5,435.7c-43.2,3.9-71.1,28-79.6,68.8-2.5,11.7-2.7,35.4-.4,47.3,4.5,23.7,14.9,40.7,31.8,51.9,31.5,20.9,88.4,19.6,116.6-2.7l5.2-4.1-3.2-4.4a27.61,27.61,0,0,0-3.7-4.5c-0.3,0-3.9,2-8.1,4.4-13.7,8-27.7,11.3-44.1,10.3-27.5-1.7-44.2-15.5-51-42.2-6.4-24.9-4.3-63.1,4.4-82.9,7.6-17.1,20.4-26.1,40.2-28.1,19.1-1.9,33.3,6.4,42.3,24.5,3.8,7.8,9.1,25.4,9.1,30.3,0,1.8.4,1.9,5.2,1.3,2.9-.4,5.5-0.9,5.7-1.2,0.5-.5-1.7-50.3-2.5-55.5-0.5-3.6-.7-3.7-8.2-6.2C1025,436.7,1002.1,434,983.5,435.7Z" transform="translate(-17 -13.12)"/>
    <path class="cls-2" d="M17,443c0,3.8.1,4,3.3,4a26.16,26.16,0,0,1,8.3,2.4c4.2,1.9,5.5,3.3,7.5,7.2l2.4,4.9L38.8,522c0.3,62.9-.1,70.6-3.8,76.8-2.2,3.6-8,6.9-13.9,7.8-4,.6-4.1.8-4.1,4.6v4l50.8-.5c32-.3,52.9-0.9,56.7-1.6,31.1-6.1,46.6-22.3,46.7-49.1,0-20-7.9-32.8-25.3-41a73,73,0,0,0-11.7-4.2c-2.9-.7-5.2-1.6-5.2-2a1,1,0,0,1,1.1-.8c0.6,0,4.3-1.5,8.4-3.4,8.7-4,15.7-10.2,19.3-17.1,2.5-4.6,2.7-6,2.7-16.5s-0.2-12-2.8-17.2c-4.8-9.8-13.7-16-27.7-19.2-11.9-2.8-28.2-3.6-70.7-3.6H17v4Zm84.5,10.5c9,1.9,14.1,5.5,18,12.5,2.8,5.2,3,6.1,3,16.5,0,10-.3,11.5-2.7,16.1-4.8,9.1-13.1,14.1-27.9,16.6-6.9,1.2-6.9,1.2-6.9,4.4,0,3,.3,3.3,4.3,3.9,21.4,3.3,34.8,11.5,39.8,24.3,3,7.6,3.3,25.1.6,32.9-5.4,15.6-16.6,21.2-41.9,21.3H76V452h9.3A97.16,97.16,0,0,1,101.5,453.5Z" transform="translate(-17 -13.12)"/>
    <path class="cls-2" d="M395,442.9v3.8l5.9,0.7c8.1,0.9,12.3,3.8,13.8,9.6,0.8,3.2,1.2,23.1,1.2,68.6,0.1,53.8-.1,64.8-1.4,69-2.1,7.2-6.6,10.8-14.8,12.2-4,.7-4.2.9-4.5,4.5l-0.3,3.7h74.2l-0.3-3.7c-0.3-3.3-.6-3.7-4.8-4.9-5.2-1.5-8.2-4.4-9.9-9.3-0.8-2.4-1.1-23.8-1.1-73.9V452.8l15.3,0.4c13.2,0.3,15.9.7,20.5,2.7,10.5,4.7,15.2,14.1,15.2,30.2,0,10.5-1.9,16.3-7.1,22.3-6.3,7.1-20,12.6-31.6,12.6-5.1,0-5.3.1-5.3,2.8a9.4,9.4,0,0,0,1.5,4.8c0.9,1,11.4,17.6,23.4,36.9s23.6,36.9,25.6,39.3a46,46,0,0,0,8.3,7c4.7,2.7,4.8,2.7,27,3l22.2,0.3v-3.3c0-3.1-.4-3.5-5.8-5.7-10.1-4.4-17.3-12.8-40.7-48.1-11.5-17.3-20.8-31.7-20.8-32a25.09,25.09,0,0,1,5.2-2.1c14.4-4.9,26.6-14.1,31-23.2,5.1-10.5,5.1-27.9,0-37.8-4.7-9.4-15.8-16.9-29.9-20.3-11.9-2.8-26.8-3.6-69.6-3.6H395v3.9Z" transform="translate(-17 -13.12)"/>
    <path class="cls-2" d="M594,442.8v3.8l6.8,1.1c8.1,1.4,11.7,4.7,12.7,11.5,0.3,2.4.5,33.8,0.3,69.8-0.3,63.4-.4,65.6-2.3,68.9-2.7,4.5-6.3,7.1-12.2,8.6-4.5,1.1-4.8,1.4-5.1,4.9l-0.3,3.6H667v-3.9c0-3.7-.2-3.9-3.7-4.4a12.94,12.94,0,0,1-10.1-7c-1.6-2.9-1.7-8.9-2-75l-0.3-71.9,15.3,0.4c17,0.4,22.1,1.8,28.6,8,8.4,8.2,10.5,29.4,4.2,41.9-2.2,4.3-8.5,10.1-13.9,12.9-5.2,2.6-15.3,5-21.3,5-4.7,0-4.8.1-4.8,3.2,0,2.2,2.3,6.6,7.8,15.2,4.3,6.7,14.8,23.3,23.3,37,15.2,24.6,21.5,32.8,27.7,36,4.6,2.4,15.4,3.5,33,3.6H766v-3.8c0-3.7-.2-3.9-5.7-6.2-9.7-4-16.8-12.2-36.8-42.5-9.8-14.9-19.6-29.4-21.7-32.3-3.4-4.6-3.7-5.3-2.1-5.9,21.3-7.4,30.5-14,36.2-26.3,2.3-4.9,2.6-6.7,2.6-17,0-10.6-.2-12-2.9-17.7C729,450,715,442.8,688.5,440.1c-6-.6-29.6-1.1-52.7-1.1H594v3.8Z" transform="translate(-17 -13.12)"/>
    <path class="cls-2" d="M789,442.4c0,3.4.1,3.5,5.4,4.6a25.46,25.46,0,0,1,8.2,3.2c5.5,4.4,5.4,3.1,5.4,76.5,0,64.4-.1,68-1.9,72-2.2,4.7-5.8,7-12.6,8-4.5.6-4.5,0.6-4.5,4.4V615h76v-7.7l-5.2-.7c-6.8-.9-11.3-5.3-12.3-11.7-0.3-2.4-.5-34.9-0.3-72.1,0.3-66.8.3-67.7,2.4-70.5,1.9-2.6,6-4.5,12.7-5.8,2.3-.5,2.7-1,2.7-4V439H789v3.4Z" transform="translate(-17 -13.12)"/>
    <path class="cls-2" d="M1088,442.4c0,3.2.3,3.4,4.7,4.5,6.9,1.8,9.9,3.6,11.7,7.5,1.4,3,1.6,10.5,1.6,71.3,0,43.1-.4,69.1-1,71.5-1.2,4-5.8,8.5-9.6,9.3-1.3.3-3.5,0.7-4.9,1-2.1.5-2.5,1.1-2.5,4V615h70v-3.4c0-3.4-1.3-4.6-5-4.6s-7.8-4.7-8.9-10.1c-1.4-6.2-1.5-134.6-.2-140.2,1.3-5.3,4.4-8.3,10.2-9.7,4.7-1.1,4.9-1.4,4.9-4.6V439h-71v3.4Z" transform="translate(-17 -13.12)"/>
    <path class="cls-2" d="M1191,443c0,3.9.1,4,3.6,4,10.4,0,11.8,8.2,3.5,20.7-5.9,8.7-24.2,30.4-36.3,42.9-7.4,7.6-10.8,11.9-10.8,13.4,0,1.3,3.5,7.8,7.8,14.4s11.2,17.5,15.2,24.1c19.9,32.7,29.2,44.5,38.8,49.2,5.6,2.8,5.9,2.8,28,3.1l22.2,0.3v-3.5c0-3.3-.2-3.5-5.2-5-12.5-3.7-22.6-15.5-52.8-62-7.7-11.8-15.8-24-18-27.2s-4-6.1-4-6.6c0-1.3,45.7-53.4,49.8-56.8a28.57,28.57,0,0,1,15.1-6.9c4.5-.6,4.6-0.7,4.9-4.4l0.3-3.7H1191v4Z" transform="translate(-17 -13.12)"/>
  </g>
</svg>
